<svg width="98" height="32" viewBox="0 0 98 32" fill="none" xmlns="http://www.w3.org/2000/svg">
<path d="M34.0908 12.07C33.9808 12.1 33.7108 12.18 33.5308 12.2C33.8608 11.88 34.0709 11.48 34.0709 11.14C33.9109 11.19 33.6208 11.3 33.3608 11.36C33.8808 10.92 34.1708 10.41 34.0408 9.72999C33.8808 9.80999 33.6608 9.93999 33.4308 10.04C33.8808 9.33999 33.8809 8.72999 33.6909 8.35999C33.4909 8.54999 33.2408 8.76999 32.9808 8.92999C33.1508 8.11999 33.1408 7.59999 32.8008 7.23999C32.4508 7.88999 32.1608 8.37999 31.6708 8.94999C31.7108 8.41999 31.6508 7.74999 31.3008 7.39999C31.3008 7.39999 31.2009 8.13999 30.9409 8.37999C30.8709 7.64999 30.6509 7.24999 30.3109 6.85999C30.3109 6.85999 30.2908 7.61999 30.0808 8.08999C29.9008 7.44999 29.5808 6.95999 29.1608 6.48999C29.1908 7.88999 28.8008 10.54 27.6708 12.32C27.5408 13.38 27.4308 14.96 25.7108 15.9C25.4608 15.72 25.0308 15.5 24.4208 15.54C24.2608 14.74 25.3009 14.02 26.2009 13.44C27.1109 12.85 27.5008 12.36 27.4808 11.58C27.4608 10.72 26.8808 10.37 26.2808 10.35C25.4308 10.31 24.7508 11.08 24.5908 11.4C24.3508 11.52 23.6208 11.74 23.3308 11.82C23.0008 11.91 22.6308 12.04 22.3908 12.24C22.5308 12.33 22.9308 12.36 23.0808 12.34C23.3708 12.3 24.2808 12.13 25.1508 12.02C25.4708 12.19 25.9809 12.48 25.4409 12.86C24.7009 13.33 24.3808 13.46 23.3308 14C21.6708 14.87 22.2108 17.05 22.6208 17.21C22.6208 17.94 23.2808 19.28 23.7208 19.74C23.9208 20.67 23.6508 22.05 23.3708 22.62C23.1408 22.06 22.7408 20.76 22.4808 20C22.7508 18.56 22.3109 17.93 22.0109 17.69C21.7109 17.44 21.2308 17.51 20.9208 18C21.4008 17.95 21.5608 18.56 21.5508 19.19C21.5408 19.95 21.3409 20.56 20.8109 20.56C20.8509 21.21 21.5508 21.4 21.9008 21.08C21.9508 21.23 22.2409 22.08 22.5009 22.84C22.6609 23.29 22.8108 23.7 22.9108 23.92C23.0208 24.16 23.8308 24.2 23.9208 23.92C24.0508 23.55 24.1508 23.27 24.3508 22.84C24.5008 22.51 24.7208 22.09 25.0408 21.47C25.2608 21.84 25.5408 22.44 25.7108 22.84C25.7908 23.03 25.8408 23.17 25.8508 23.24C25.9108 23.86 25.8808 26.06 25.7108 27.38C23.9008 26.89 23.3908 27.77 23.5508 28.43C23.8108 28.14 24.1508 28.18 24.3608 28.33C24.3108 28.81 24.4408 29.16 24.9308 29.3C25.4508 27.93 27.3208 28.23 27.4908 28.34C27.5008 28.08 27.7508 27.41 26.7908 27.28C26.8308 26.09 26.9508 24.63 26.9908 24.34C27.0308 24.03 27.0608 23.85 26.9208 23.37C26.8808 23.23 26.8308 23.05 26.7708 22.85C26.6408 22.37 26.5209 21.74 26.5109 21.06C26.6809 21.22 27.0708 21.36 27.3508 21.3C27.5608 22.2 27.8608 21.94 28.0208 22.31C28.1008 22.5 28.1208 22.69 28.1408 22.85C28.1608 23.01 28.1808 23.14 28.2708 23.26C28.9108 23.28 29.4608 23.12 29.8508 22.85C29.9708 22.76 30.0708 22.67 30.1608 22.57C30.0008 21.61 29.7308 21.14 29.2408 20.57C29.1108 19.79 28.7408 19.07 28.2408 18.44C28.8808 18.24 29.5108 17.72 29.8508 17.37C30.1508 17.35 30.5008 17.1 30.5308 16.6C30.7108 16.58 30.8608 16.57 30.9908 16.54C30.9708 16.4 30.9408 16.2 30.9208 16.08C31.1508 16.08 31.3708 16.07 31.5908 16.05C31.5308 15.87 31.4409 15.68 31.3809 15.55C31.6109 15.55 31.9009 15.53 32.1309 15.52C32.0109 15.29 31.9208 15.09 31.8408 14.88C32.1108 14.85 32.5208 14.79 32.8608 14.71C32.7508 14.59 32.6309 14.48 32.4409 14.3C33.3209 14.04 33.7009 13.42 33.7509 13.16C33.6209 13.16 33.3509 13.22 33.1909 13.2C33.7009 12.9 34.0408 12.5 34.0908 12.07Z" fill="#231F20"/>
<path d="M21.7609 14.05H16.2908H10.8308H10.6208V14.26V18.17C10.6708 18.2 10.7208 18.24 10.7708 18.29V14.23H21.8508V18C21.8908 18.04 21.9308 18.1 21.9608 18.16V14.26V14.05H21.7609Z" fill="#231F20"/>
<path d="M16.2808 28.23C11.3708 26.4 10.7408 22.37 10.7208 20.54C10.7108 20.54 10.7109 20.54 10.7009 20.53C10.7109 20.48 10.7108 20.44 10.7208 20.4C10.7208 20 10.7509 19.73 10.7609 19.64C10.7509 19.38 10.7108 19.18 10.6708 19.02C10.6608 18.99 10.6308 18.96 10.6208 18.93V20.83C10.6208 22.96 11.4008 24.79 12.9308 26.27C14.2808 27.57 15.7808 28.18 16.2208 28.33L16.2908 28.36L16.3608 28.33C16.7908 28.18 18.3008 27.56 19.6408 26.27C21.1808 24.78 21.9509 22.95 21.9509 20.83V20.49C21.9109 20.55 21.8708 20.59 21.8308 20.64C21.7908 21.59 21.6108 23.07 20.9808 24.19C20.2308 25.74 19.0708 27.02 16.2808 28.23Z" fill="#231F20"/>
<path d="M14.3109 10.41C13.5409 10.45 12.7908 11.45 13.1108 12.59C12.9908 12.63 12.6608 12.62 12.5508 12.4C12.4708 12.77 11.7208 13.19 11.1708 13.14C11.4708 12.81 11.6708 12.08 12.2708 11.69C12.8708 11.3 13.1308 11.03 13.3408 10.36C13.0708 10.49 11.6308 10.86 11.2308 10.42C12.1708 10.28 13.2908 9.75 13.8308 9.41L13.6108 9.18C13.0208 9.51 12.2308 9.78 11.8308 9.91C11.6908 8.73 12.8108 8.78 12.8908 9.1C13.3508 8.55 13.0309 7.76 12.6909 7.67C13.0409 6.73 12.6908 6.15 12.3908 5.81C12.3208 6.81 11.2009 6.97 11.0709 7.73C11.0309 7.12 10.9909 5.48 10.9409 4.68C10.8509 3.19 8.97085 2.67 8.68085 2.67C7.45085 2.73 7.34085 2.57 7.37085 2C6.75085 2.71 6.96084 3.34 7.49084 3.64C7.42084 4.06 6.74086 4.4 6.32086 4.49C7.32086 5.42 8.48082 4.86 9.03082 4.34C9.07082 4.3 9.11082 4.27 9.15082 4.23C9.35082 4.58 9.49084 5.23 9.49084 5.59C8.56084 5.54 8.39081 6.26 8.39081 6.52C9.58081 6.03 9.70081 8.3 10.0208 8.67C9.71081 8.65 9.18081 7.95 8.39081 7.9C7.44081 7.84 7.10083 8.34 6.72083 8.33C6.79083 9 7.61081 9.38 8.14081 9.46C7.87081 10.15 8.11084 10.61 8.67084 10.78C8.67084 10.15 9.46086 9.96 10.3209 10.46C11.3409 11.05 11.8709 11.11 12.6909 10.85C12.5509 11.15 12.1808 11.18 11.7308 11.63C11.1008 12.26 11.0708 13.08 10.3608 13.37C11.1908 13.77 12.4509 13.21 12.6309 12.89C12.9809 13.11 13.4308 12.98 13.5508 12.76C12.9908 11.51 13.9409 10.77 14.3209 10.78C14.3309 10.77 14.5009 10.4 14.3109 10.41ZM9.97083 9.9C9.55083 9.73 8.91083 9.62 8.54083 10.13C8.34083 9.79 8.63085 9.28 8.81085 9.12C7.89085 9.14 7.37084 8.86 7.24084 8.58C7.58084 8.39 8.44081 8.08 9.14081 8.6C9.62081 8.95 9.87087 9.13 10.4509 9.32C10.6509 9.11 10.5808 9.21 10.6408 9.15C10.1708 8.83 9.96083 6.32 9.04083 6.23C9.17083 5.92 9.65082 5.94 10.0308 6.05C10.0608 5.49 9.83083 4.56 9.48083 4.03C10.0108 3.74 10.3809 4.05 10.5709 4.72C10.7709 5.43 10.5409 7.19 11.0009 8.78L11.2908 8.51C11.1408 7.58 12.1608 7.24 12.3908 6.78C12.4808 7.41 12.3508 7.68 12.1708 7.91C12.5408 7.95 12.7108 8.32 12.6408 8.57C11.7608 8.44 11.2409 9.33 11.4409 10.04C10.7809 10.16 10.3308 10.05 9.97083 9.9ZM7.45087 2.94C8.15087 3.28 8.37085 2.65 9.68085 3.5C8.81085 3.77 8.15084 4.84 7.17084 4.57C7.87084 4.22 7.80082 3.71 8.21082 3.45C7.95082 3.41 7.44087 3.3 7.45087 2.94Z" fill="#231F20"/>
<path d="M23.4208 6.98C23.4208 5.59 23.3708 4.44 23.3508 4.08C23.4108 4.09 23.4608 4.11 23.5208 4.13C24.5208 4.48 24.7508 5.68 26.8108 4.32C25.7108 4.45 25.6408 3.51 25.1408 3.49C25.9108 3.06 25.9608 2.06 25.9608 2.06C25.3208 2.58 23.8308 2.61 23.5408 2.78C23.1508 3.01 22.6708 3.3 22.3408 3.47C21.4808 3.94 22.0808 6.49 21.9908 7.42C21.5308 6.03 20.5908 6.24 20.0908 5.44C19.7208 6.1 20.1108 7.22 20.2608 7.54C19.7308 7.97 19.8708 8.78 20.0008 8.99C20.4608 8.66 21.1608 8.74 21.3808 9.3C20.7808 9.66 19.7808 9.73 19.0908 9.07L18.8408 9.34C19.3208 9.98 20.5408 10.23 21.4408 9.71C21.4408 9.85 21.4008 10.02 21.3408 10.2C20.8708 10.45 20.2708 10.58 19.5708 10.35C19.6708 11.05 20.4708 11.57 21.2308 11.78C20.9708 11.98 20.6508 12.06 20.4208 12.03C20.5708 12.43 20.6508 12.97 20.3408 13.4C19.9508 13.15 19.7508 12.89 19.6108 11.91C19.4708 10.93 18.7608 9.93 18.2108 9.72C18.1808 10.07 18.1808 9.92 18.2408 10.14C19.7008 11.21 18.8708 13.14 20.3908 13.84C20.9508 13.2 20.9508 12.98 20.8708 12.38C21.4208 12.23 21.8308 11.77 21.9808 11.42C21.4608 11.67 20.6308 11.23 20.4008 10.89C21.3008 10.86 22.1408 10.18 23.0008 9.28C23.7708 8.48 24.7908 8.6 24.7108 9.23C25.2408 9.15 25.4508 8.43 25.2708 7.96C26.0408 7.72 26.6508 7.14 26.7408 6.25C25.7208 6.78 24.4008 5.92 23.4208 6.98ZM24.6708 7.73C25.0808 8.07 24.9508 8.55 24.8508 8.65C24.5008 8.03 23.3308 8.25 22.2008 9.53C22.1208 9.63 22.0108 9.74 21.8908 9.85C21.9808 8.31 20.7208 8.29 20.3508 8.45C20.3908 8.01 20.6608 7.7 20.8108 7.66C20.4408 7.23 20.3608 6.69 20.3208 6.3C20.9308 6.57 21.8408 7.28 22.0008 8.52L22.4008 8.25C22.2808 6.08 22.3108 6.09 22.2908 4.62C22.2908 4.41 22.3008 3.94 22.9508 3.99C22.9708 4.53 23.0608 5.98 23.0308 8H23.2608C23.4708 7.44 24.2208 6.78 25.0808 6.84C25.6708 6.88 25.8808 6.87 26.2208 6.72C25.9408 7.39 24.9308 7.69 24.6708 7.73ZM22.9608 3.62C23.3808 3.32 23.6508 3.18 23.8708 3.06C24.2308 3.07 24.8508 3.03 25.2308 2.84C24.8408 3.32 24.7908 3.49 24.1608 3.56C24.9908 3.64 25.3308 4.37 25.7408 4.49C24.3608 4.9 24.2208 3.54 22.9608 3.62Z" fill="#231F20"/>
<path d="M17.7908 11.73C17.7208 11.73 17.6508 11.77 17.6108 11.82C17.5308 11.81 17.4508 11.79 17.3708 11.78V11.33C17.4508 11.3 17.5009 11.22 17.5009 11.12C17.5009 11 17.4008 10.9 17.2808 10.9C17.1608 10.9 17.0508 11 17.0508 11.12C17.0508 11.2 17.1008 11.28 17.1708 11.31V11.74C17.0908 11.73 17.0208 11.72 16.9308 11.72C16.9008 11.64 16.8208 11.59 16.7308 11.59C16.6008 11.59 16.5109 11.69 16.5109 11.81C16.5109 11.94 16.6108 12.03 16.7308 12.03C16.8108 12.03 16.8808 11.99 16.9208 11.93C17.0108 11.94 17.0908 11.95 17.1708 11.96L17.1608 12.61C17.0908 12.65 17.0408 12.72 17.0408 12.81C17.0408 12.94 17.1409 13.03 17.2609 13.03C17.3909 13.03 17.4908 12.93 17.4908 12.81C17.4908 12.72 17.4308 12.64 17.3508 12.61L17.3608 11.99C17.4408 12 17.5009 12.01 17.5709 12.02C17.6009 12.11 17.6808 12.17 17.7808 12.17C17.9008 12.17 18.0009 12.07 18.0009 11.95C18.0109 11.83 17.9208 11.73 17.7908 11.73Z" fill="#231F20"/>
<path d="M15.8508 11.6C15.7608 11.6 15.6808 11.65 15.6408 11.73C15.5608 11.73 15.4808 11.74 15.4108 11.75L15.4008 11.32C15.4708 11.28 15.5208 11.21 15.5208 11.13C15.5208 11.01 15.4208 10.91 15.3008 10.91C15.1708 10.91 15.0709 11.01 15.0709 11.13C15.0709 11.22 15.1209 11.3 15.2009 11.34L15.2108 11.79C15.1308 11.8 15.0408 11.81 14.9608 11.83C14.9208 11.78 14.8608 11.74 14.7908 11.74C14.6608 11.74 14.5709 11.84 14.5709 11.97C14.5709 12.09 14.6708 12.19 14.7908 12.19C14.8908 12.19 14.9709 12.13 15.0009 12.04C15.0709 12.02 15.1408 12.01 15.2108 12.01L15.2208 12.63C15.1408 12.66 15.0908 12.74 15.0908 12.83C15.0908 12.96 15.1909 13.05 15.3209 13.05C15.4409 13.05 15.5408 12.95 15.5408 12.83C15.5408 12.74 15.4908 12.67 15.4208 12.63L15.4108 11.98C15.4908 11.97 15.5708 11.96 15.6608 11.95C15.7008 12.01 15.7608 12.05 15.8508 12.05C15.9708 12.05 16.0709 11.95 16.0709 11.83C16.0809 11.7 15.9708 11.6 15.8508 11.6Z" fill="#231F20"/>
<path d="M18.8209 13.51C18.6809 12.61 18.3609 10.09 18.3209 9.23999L17.9409 9.25999C17.9509 9.40999 17.9608 9.58999 17.9808 9.81999C17.5208 9.67999 16.9208 9.58999 16.3008 9.58999C15.6808 9.58999 15.0808 9.68999 14.6108 9.81999C14.6308 9.59999 14.6508 9.40999 14.6508 9.25999L14.2609 9.23999C14.2209 10.08 13.9009 12.6 13.7609 13.51C13.5309 13.6 13.3809 13.83 13.3809 14.24C13.3809 14.24 15.4808 14.27 16.2908 14.27C17.1008 14.27 19.1909 14.24 19.1909 14.24C19.2009 13.83 19.0509 13.6 18.8209 13.51ZM16.2908 13.49C15.9608 14.13 15.3408 14.11 14.8008 13.75C14.5808 13.61 14.3608 13.52 14.1508 13.48C14.2408 12.86 14.4009 11.67 14.5109 10.68C15.2109 10.36 16.0708 10.29 16.2808 11.09C16.4908 10.29 17.3508 10.36 18.0508 10.68C18.1608 11.68 18.3208 12.86 18.4108 13.48C18.2108 13.51 17.9808 13.61 17.7708 13.75C17.2408 14.11 16.6308 14.13 16.2908 13.49Z" fill="#231F20"/>
<path d="M28.0509 29.45C27.8109 29.53 27.5208 29.57 27.0808 29.57H26.5408C24.6508 29.53 22.7208 28.97 21.5308 27.76C23.1708 26.11 21.2508 24.75 20.2108 26.15C19.8808 26.59 19.6308 26.9 19.4008 27.32C19.2208 27.66 19.3609 28.01 19.7609 28.53C19.9809 28.82 20.5409 29.27 20.9909 29.56H11.5908C12.0408 29.26 12.6009 28.82 12.8209 28.53C13.2209 28 13.3609 27.66 13.1809 27.32C12.9509 26.9 12.6909 26.59 12.3709 26.15C11.3309 24.75 9.40085 26.11 11.0408 27.76C9.86085 28.97 7.92085 29.53 6.04085 29.57H5.52083C5.08083 29.57 4.78085 29.53 4.54085 29.45C4.15085 29.36 4.06083 29.53 4.27083 30.2C4.42083 30.65 4.53083 31.38 4.58083 31.88H28.0109C28.0609 31.38 28.1709 30.65 28.3209 30.2C28.5309 29.52 28.4409 29.36 28.0509 29.45ZM20.7208 26.2C21.0308 25.79 21.4808 25.9 21.6608 26.24C21.8508 26.61 21.5709 27.06 21.1809 27.41C20.6509 26.84 20.5908 26.38 20.7208 26.2ZM19.9409 28.13C19.7509 27.86 19.6808 27.7 19.7908 27.44C19.8908 27.19 20.0909 26.97 20.3009 26.66C20.6309 27.94 22.5509 29.16 23.9809 29.56H21.7108C21.1108 29.25 20.3709 28.73 19.9409 28.13ZM10.9008 26.25C11.0808 25.9 11.5308 25.8 11.8408 26.21C11.9708 26.38 11.9209 26.85 11.3809 27.42C10.9909 27.06 10.7008 26.61 10.9008 26.25ZM12.2708 26.67C12.4808 26.98 12.6808 27.2 12.7708 27.45C12.8708 27.71 12.8009 27.86 12.6209 28.14C12.1909 28.74 11.4509 29.26 10.8609 29.58H8.59084C10.0208 29.16 11.9408 27.95 12.2708 26.67ZM27.6008 31.51H4.98085C4.88085 30.79 4.74086 30.33 4.62086 29.94H27.9608C27.8408 30.32 27.7108 30.79 27.6008 31.51Z" fill="#231F20"/>
<path d="M8.05084 31C8.06084 31 8.06085 31 8.06085 31.01L8.12085 31.18C8.13085 31.2 8.12084 31.21 8.11084 31.21C8.09084 31.21 8.09082 31.21 8.09082 31.22C8.09082 31.23 8.11086 31.23 8.13086 31.23C8.24086 31.23 8.33086 31.23 8.38086 31.23C8.43086 31.23 8.44086 31.23 8.44086 31.22C8.44086 31.21 8.43084 31.21 8.42084 31.21C8.41084 31.21 8.38084 31.21 8.36084 31.21C8.33084 31.2 8.29084 31.19 8.24084 31.06C8.16084 30.85 7.94083 30.31 7.91083 30.23C7.90083 30.2 7.89085 30.19 7.87085 30.19C7.86085 30.19 7.85081 30.21 7.83081 30.25L7.50085 31.09C7.48085 31.16 7.45081 31.2 7.39081 31.21C7.37081 31.21 7.36083 31.21 7.35083 31.21C7.34083 31.21 7.33081 31.21 7.33081 31.22C7.33081 31.23 7.34084 31.23 7.36084 31.23C7.43084 31.23 7.50081 31.23 7.52081 31.23C7.56081 31.23 7.62083 31.23 7.66083 31.23C7.67083 31.23 7.68085 31.23 7.68085 31.22C7.68085 31.21 7.67083 31.21 7.66083 31.21H7.64081C7.60081 31.21 7.58081 31.19 7.58081 31.17C7.58081 31.15 7.59083 31.13 7.60083 31.09L7.63086 31.01C7.63086 31 7.64081 31 7.64081 31H8.05084ZM7.69086 30.93C7.68086 30.93 7.68085 30.93 7.68085 30.92L7.85083 30.47C7.85083 30.47 7.85084 30.46 7.86084 30.46V30.47L8.03082 30.92C8.03082 30.92 8.03081 30.93 8.02081 30.93H7.69086Z" fill="#231F20"/>
<path d="M8.72083 30.8C8.72083 31 8.77082 31.1 8.84082 31.16C8.94082 31.25 9.06086 31.25 9.13086 31.25C9.22086 31.25 9.32083 31.24 9.41083 31.15C9.52083 31.06 9.54083 30.89 9.54083 30.75V30.61C9.54083 30.41 9.54083 30.37 9.54083 30.33C9.54083 30.28 9.55082 30.26 9.59082 30.25C9.61082 30.25 9.62086 30.25 9.63086 30.25C9.65086 30.25 9.65082 30.24 9.65082 30.24C9.65082 30.23 9.64085 30.23 9.62085 30.23C9.57085 30.23 9.48082 30.23 9.46082 30.23C9.46082 30.23 9.38085 30.23 9.31085 30.23C9.29085 30.23 9.28082 30.23 9.28082 30.24C9.28082 30.25 9.29084 30.25 9.30084 30.25C9.31084 30.25 9.33083 30.25 9.35083 30.25C9.39083 30.26 9.40082 30.28 9.40082 30.33C9.40082 30.37 9.40082 30.41 9.40082 30.61V30.78C9.40082 30.92 9.40086 31.04 9.32086 31.11C9.27086 31.17 9.19081 31.18 9.14081 31.18C9.09081 31.18 9.03083 31.17 8.97083 31.13C8.90083 31.08 8.86084 30.99 8.86084 30.8V30.61C8.86084 30.41 8.86084 30.37 8.86084 30.33C8.86084 30.28 8.88083 30.26 8.91083 30.25C8.93083 30.25 8.93087 30.25 8.95087 30.25C8.97087 30.25 8.97083 30.24 8.97083 30.24C8.97083 30.23 8.96086 30.23 8.94086 30.23C8.89086 30.23 8.81081 30.23 8.77081 30.23C8.73081 30.23 8.64081 30.23 8.58081 30.23C8.56081 30.23 8.55084 30.23 8.55084 30.24C8.55084 30.25 8.56086 30.25 8.57086 30.25C8.59086 30.25 8.61085 30.25 8.62085 30.25C8.66085 30.26 8.68085 30.28 8.68085 30.33C8.68085 30.37 8.68085 30.41 8.68085 30.61L8.72083 30.8Z" fill="#231F20"/>
<path d="M10.1108 30.84C10.1108 30.97 10.1108 31.07 10.1008 31.13C10.0908 31.17 10.0909 31.19 10.0609 31.2C10.0509 31.2 10.0309 31.2 10.0109 31.2C9.99086 31.2 9.99084 31.21 9.99084 31.21C9.99084 31.22 10.0009 31.22 10.0109 31.22C10.0709 31.22 10.1508 31.22 10.1808 31.22C10.2508 31.22 10.3708 31.24 10.4708 31.24C10.7208 31.24 10.8608 31.14 10.9208 31.08C10.9908 31 11.0709 30.87 11.0709 30.7C11.0709 30.54 11.0108 30.43 10.9308 30.36C10.7908 30.21 10.5608 30.21 10.4008 30.21C10.3208 30.21 10.2409 30.21 10.1909 30.21C10.1509 30.21 10.0709 30.21 10.0009 30.21C9.98085 30.21 9.97083 30.21 9.97083 30.22C9.97083 30.23 9.98084 30.23 9.99084 30.23C10.0108 30.23 10.0308 30.23 10.0408 30.23C10.0808 30.24 10.0908 30.26 10.1008 30.31C10.1108 30.35 10.1108 30.39 10.1108 30.59V30.84ZM10.2808 30.58C10.2808 30.48 10.2808 30.36 10.2808 30.31C10.2808 30.3 10.2908 30.29 10.3008 30.29C10.3108 30.28 10.3608 30.28 10.3908 30.28C10.5008 30.28 10.6508 30.3 10.7708 30.42C10.8308 30.48 10.9008 30.58 10.9008 30.75C10.9008 30.89 10.8708 31.01 10.7908 31.09C10.7108 31.16 10.6208 31.19 10.4808 31.19C10.3808 31.19 10.3208 31.16 10.3008 31.14C10.2908 31.12 10.2908 31.07 10.2908 31.04C10.2808 31.02 10.2808 30.91 10.2808 30.77V30.58V30.58Z" fill="#231F20"/>
<path d="M11.9509 31C11.9609 31 11.9608 31 11.9608 31.01L12.0208 31.18C12.0208 31.2 12.0209 31.21 12.0009 31.21C11.9909 31.21 11.9808 31.21 11.9808 31.22C11.9808 31.23 12.0008 31.23 12.0208 31.23C12.1208 31.23 12.2308 31.23 12.2708 31.23C12.3208 31.23 12.3308 31.23 12.3308 31.22C12.3308 31.21 12.3209 31.21 12.3109 31.21C12.2909 31.21 12.2709 31.21 12.2509 31.21C12.2209 31.2 12.1809 31.19 12.1309 31.06C12.0509 30.85 11.8308 30.31 11.8008 30.23C11.7808 30.2 11.7809 30.19 11.7609 30.19C11.7509 30.19 11.7408 30.21 11.7208 30.25L11.3809 31.09C11.3609 31.16 11.3308 31.2 11.2708 31.21C11.2608 31.21 11.2408 31.21 11.2308 31.21C11.2208 31.21 11.2108 31.21 11.2108 31.22C11.2108 31.23 11.2208 31.23 11.2408 31.23C11.3108 31.23 11.3808 31.23 11.4008 31.23C11.4408 31.23 11.5008 31.23 11.5408 31.23C11.5608 31.23 11.5609 31.23 11.5609 31.22C11.5609 31.21 11.5508 31.21 11.5408 31.21H11.5208C11.4808 31.21 11.4708 31.19 11.4708 31.17C11.4708 31.15 11.4808 31.13 11.4908 31.09L11.5208 31.01C11.5208 31 11.5208 31 11.5408 31H11.9509ZM11.5908 30.93C11.5908 30.93 11.5808 30.93 11.5908 30.92L11.7509 30.47L11.7609 30.46V30.47L11.9308 30.92C11.9308 30.92 11.9308 30.93 11.9208 30.93H11.5908Z" fill="#231F20"/>
<path d="M13.2609 30.35C13.3009 30.29 13.3308 30.25 13.3608 30.24C13.3808 30.23 13.3908 30.23 13.4108 30.23C13.4208 30.23 13.4308 30.23 13.4308 30.22C13.4308 30.21 13.4208 30.21 13.4108 30.21C13.3608 30.21 13.3008 30.21 13.2808 30.21C13.2608 30.21 13.2008 30.21 13.1508 30.21C13.1308 30.21 13.1309 30.21 13.1309 30.22C13.1309 30.23 13.1408 30.23 13.1408 30.23C13.1508 30.23 13.1708 30.23 13.1808 30.23C13.1908 30.24 13.2009 30.25 13.2009 30.25C13.2009 30.26 13.1908 30.29 13.1808 30.3C13.1608 30.34 13.0409 30.52 13.0009 30.58C12.9509 30.49 12.8908 30.39 12.8308 30.28C12.8208 30.27 12.8109 30.25 12.8109 30.24C12.8109 30.23 12.8208 30.23 12.8308 30.22C12.8408 30.22 12.8608 30.22 12.8708 30.22C12.8808 30.22 12.8908 30.22 12.8908 30.21C12.8908 30.2 12.8808 30.2 12.8608 30.2C12.8108 30.2 12.7308 30.2 12.7208 30.2C12.6608 30.2 12.5508 30.2 12.5208 30.2C12.5008 30.2 12.4908 30.2 12.4908 30.21C12.4908 30.22 12.5009 30.23 12.5109 30.23C12.5209 30.23 12.5409 30.23 12.5609 30.24C12.6109 30.25 12.6408 30.28 12.6708 30.34L12.9008 30.72L12.6408 31.09C12.5908 31.15 12.5708 31.18 12.5308 31.19C12.5108 31.19 12.4908 31.19 12.4808 31.19C12.4708 31.19 12.4608 31.2 12.4608 31.2C12.4608 31.21 12.4708 31.21 12.4808 31.21H12.5009C12.5209 31.21 12.5908 31.21 12.6108 31.21C12.6408 31.21 12.7308 31.21 12.7408 31.21H12.7609C12.7809 31.21 12.7908 31.21 12.7908 31.2C12.7908 31.19 12.7808 31.19 12.7708 31.19C12.7608 31.19 12.7508 31.19 12.7408 31.19C12.7308 31.19 12.7208 31.18 12.7108 31.17C12.7108 31.16 12.7208 31.14 12.7308 31.12L12.9308 30.8C12.9908 30.9 13.0708 31.03 13.1408 31.16C13.1508 31.18 13.1508 31.19 13.1408 31.19C13.1308 31.19 13.1208 31.19 13.1208 31.2C13.1208 31.21 13.1308 31.22 13.1708 31.22C13.2708 31.22 13.3808 31.22 13.4108 31.22H13.4509C13.4609 31.22 13.4708 31.22 13.4708 31.21C13.4708 31.2 13.4609 31.2 13.4509 31.2C13.4409 31.2 13.4208 31.2 13.4008 31.19C13.3608 31.18 13.3409 31.16 13.3209 31.13C13.2909 31.09 13.0708 30.73 13.0308 30.66L13.2609 30.35Z" fill="#231F20"/>
<path d="M15.4509 31C15.4609 31 15.4609 31 15.4509 31L15.5208 31.17C15.5208 31.19 15.5109 31.2 15.5109 31.2C15.5009 31.2 15.4908 31.2 15.4908 31.21C15.4908 31.22 15.5108 31.22 15.5308 31.22C15.6308 31.22 15.7308 31.22 15.7808 31.22C15.8308 31.22 15.8408 31.22 15.8408 31.21C15.8408 31.2 15.8409 31.2 15.8209 31.2C15.8009 31.2 15.7908 31.2 15.7708 31.2C15.7408 31.19 15.7008 31.18 15.6508 31.05C15.5608 30.84 15.3509 30.3 15.3209 30.22C15.3109 30.19 15.3008 30.18 15.2808 30.18C15.2608 30.18 15.2608 30.2 15.2408 30.24L14.9108 31.08C14.8908 31.15 14.8608 31.19 14.8008 31.2C14.7908 31.2 14.7709 31.2 14.7609 31.2C14.7509 31.2 14.7509 31.2 14.7509 31.21C14.7509 31.22 14.7608 31.22 14.7708 31.22C14.8408 31.22 14.9108 31.22 14.9308 31.22C14.9708 31.22 15.0309 31.22 15.0709 31.22C15.0909 31.22 15.0908 31.22 15.0908 31.21C15.0908 31.2 15.0909 31.2 15.0709 31.2H15.0508C15.0108 31.2 15.0009 31.18 15.0009 31.16C15.0009 31.14 15.0008 31.12 15.0208 31.08L15.0508 31C15.0608 30.99 15.0609 30.99 15.0609 30.99H15.4509V31ZM15.0908 30.93C15.0908 30.93 15.0808 30.93 15.0908 30.92L15.2509 30.47C15.2509 30.47 15.2509 30.46 15.2609 30.46C15.2609 30.46 15.2608 30.47 15.2708 30.47L15.4409 30.92C15.4409 30.92 15.4408 30.93 15.4308 30.93H15.0908Z" fill="#231F20"/>
<path d="M16.2708 30.84C16.2708 30.97 16.2709 31.07 16.2609 31.13C16.2609 31.17 16.2508 31.19 16.2208 31.2C16.2108 31.2 16.1908 31.2 16.1708 31.2C16.1508 31.2 16.1508 31.21 16.1508 31.21C16.1508 31.22 16.1608 31.22 16.1808 31.22C16.2408 31.22 16.3208 31.22 16.3508 31.22C16.3908 31.22 16.4709 31.22 16.5609 31.22C16.5809 31.22 16.5908 31.22 16.5908 31.21C16.5908 31.2 16.5809 31.2 16.5709 31.2C16.5509 31.2 16.5209 31.2 16.5009 31.2C16.4609 31.19 16.4509 31.17 16.4509 31.13C16.4409 31.07 16.4409 30.97 16.4409 30.84V30.29H16.6108C16.7308 30.3 16.7608 30.33 16.7708 30.37V30.38C16.7708 30.4 16.7808 30.41 16.7908 30.41C16.7908 30.41 16.8008 30.4 16.8008 30.39C16.8008 30.35 16.8008 30.26 16.8008 30.23C16.8008 30.21 16.8008 30.21 16.7908 30.21C16.7808 30.21 16.7508 30.22 16.6608 30.22H16.1309C16.0909 30.22 16.0409 30.22 16.0009 30.22C15.9709 30.22 15.9509 30.2 15.9409 30.2C15.9309 30.2 15.9308 30.21 15.9208 30.22C15.9208 30.23 15.8908 30.35 15.8908 30.37C15.8908 30.39 15.8908 30.39 15.9008 30.39C15.9108 30.39 15.9108 30.38 15.9208 30.37C15.9308 30.36 15.9309 30.34 15.9409 30.32C15.9609 30.29 15.9909 30.29 16.0709 30.28H16.2708V30.84V30.84Z" fill="#231F20"/>
<path d="M18.6108 30.73C18.6108 30.72 18.6108 30.72 18.6208 30.72C18.6408 30.72 18.7809 30.72 18.8209 30.72C18.8609 30.73 18.8808 30.75 18.8908 30.77C18.8908 30.79 18.9008 30.8 18.9008 30.81C18.9008 30.81 18.9008 30.83 18.9208 30.83C18.9308 30.83 18.9308 30.81 18.9308 30.8C18.9308 30.79 18.9309 30.73 18.9409 30.7C18.9409 30.66 18.9509 30.63 18.9509 30.63C18.9509 30.62 18.9509 30.61 18.9409 30.61C18.9309 30.61 18.9308 30.62 18.9208 30.62C18.9008 30.64 18.8908 30.64 18.8608 30.64C18.8408 30.65 18.8208 30.65 18.8008 30.65H18.6309C18.6209 30.65 18.6208 30.64 18.6208 30.64V30.31C18.6208 30.29 18.6209 30.29 18.6309 30.29H18.8408C18.8908 30.29 18.9208 30.31 18.9308 30.33C18.9408 30.35 18.9409 30.37 18.9409 30.38C18.9409 30.4 18.9409 30.4 18.9509 30.4C18.9609 30.4 18.9608 30.4 18.9608 30.38C18.9608 30.37 18.9608 30.28 18.9608 30.27C18.9708 30.24 18.9708 30.22 18.9708 30.21C18.9708 30.2 18.9708 30.2 18.9608 30.2C18.9508 30.2 18.9509 30.21 18.9409 30.21C18.9309 30.21 18.9109 30.21 18.8809 30.21C18.8509 30.21 18.5808 30.21 18.5308 30.21C18.4908 30.21 18.4008 30.21 18.3308 30.21C18.3108 30.21 18.3008 30.21 18.3008 30.22C18.3008 30.23 18.3109 30.23 18.3209 30.23C18.3409 30.23 18.3608 30.23 18.3708 30.23C18.4108 30.24 18.4208 30.26 18.4308 30.31C18.4308 30.35 18.4308 30.39 18.4308 30.59V30.83C18.4308 30.96 18.4308 31.06 18.4208 31.12C18.4208 31.16 18.4109 31.18 18.3809 31.19C18.3709 31.19 18.3608 31.19 18.3308 31.19C18.3108 31.19 18.3109 31.2 18.3109 31.2C18.3109 31.21 18.3208 31.21 18.3408 31.21C18.3908 31.21 18.4709 31.21 18.5109 31.21C18.5409 31.21 18.6308 31.21 18.7108 31.21C18.7308 31.21 18.7408 31.21 18.7408 31.2C18.7408 31.19 18.7308 31.19 18.7208 31.19C18.7008 31.19 18.6708 31.19 18.6508 31.19C18.6108 31.18 18.6008 31.16 18.6008 31.12C18.5908 31.06 18.5908 30.97 18.5908 30.83L18.6108 30.73Z" fill="#231F20"/>
<path d="M19.4608 30.84C19.4608 30.97 19.4608 31.08 19.4608 31.14C19.4608 31.17 19.4508 31.2 19.4208 31.2C19.4108 31.2 19.3908 31.2 19.3708 31.2C19.3508 31.2 19.3508 31.21 19.3508 31.21C19.3508 31.22 19.3609 31.22 19.3809 31.22C19.4309 31.22 19.5208 31.22 19.5508 31.22C19.5908 31.22 19.6709 31.22 19.7609 31.22C19.7709 31.22 19.7808 31.22 19.7808 31.21C19.7808 31.2 19.7709 31.2 19.7609 31.2C19.7409 31.2 19.7109 31.2 19.6909 31.2C19.6509 31.19 19.6408 31.17 19.6408 31.14C19.6408 31.08 19.6408 30.98 19.6408 30.84V30.6C19.6408 30.4 19.6408 30.36 19.6408 30.32C19.6408 30.27 19.6509 30.25 19.6909 30.24C19.7109 30.24 19.7208 30.24 19.7308 30.24C19.7408 30.24 19.7509 30.24 19.7509 30.22C19.7509 30.21 19.7408 30.21 19.7208 30.21C19.6708 30.21 19.5909 30.21 19.5609 30.21C19.5209 30.21 19.4408 30.21 19.3908 30.21C19.3708 30.21 19.3608 30.21 19.3608 30.22C19.3608 30.23 19.3709 30.24 19.3809 30.24C19.3909 30.24 19.4108 30.24 19.4308 30.24C19.4608 30.25 19.4708 30.27 19.4708 30.32C19.4708 30.36 19.4708 30.4 19.4708 30.6V30.84H19.4608Z" fill="#231F20"/>
<path d="M20.2609 30.84C20.2609 30.97 20.2609 31.07 20.2509 31.13C20.2509 31.17 20.2408 31.19 20.2108 31.2C20.2008 31.2 20.1808 31.2 20.1608 31.2C20.1508 31.2 20.1408 31.21 20.1408 31.21C20.1408 31.22 20.1508 31.22 20.1708 31.22C20.2208 31.22 20.3108 31.22 20.3408 31.22C20.4008 31.22 20.5309 31.24 20.6309 31.24C20.8809 31.24 21.0208 31.14 21.0808 31.08C21.1508 31 21.2208 30.87 21.2208 30.7C21.2208 30.54 21.1608 30.43 21.0908 30.36C20.9408 30.21 20.7208 30.21 20.5508 30.21C20.4708 30.21 20.3808 30.21 20.3408 30.21C20.3008 30.21 20.2208 30.21 20.1508 30.21C20.1308 30.21 20.1208 30.21 20.1208 30.22C20.1208 30.23 20.1308 30.23 20.1508 30.23C20.1608 30.23 20.1909 30.23 20.2009 30.23C20.2409 30.24 20.2509 30.26 20.2609 30.31C20.2609 30.35 20.2609 30.39 20.2609 30.59V30.84ZM20.4308 30.58C20.4308 30.48 20.4308 30.36 20.4308 30.31C20.4308 30.3 20.4409 30.29 20.4509 30.29C20.4609 30.28 20.5108 30.28 20.5408 30.28C20.6408 30.28 20.8008 30.3 20.9208 30.42C20.9708 30.48 21.0508 30.58 21.0508 30.75C21.0508 30.89 21.0209 31.01 20.9409 31.09C20.8609 31.16 20.7709 31.19 20.6309 31.19C20.5209 31.19 20.4708 31.16 20.4608 31.14C20.4508 31.12 20.4509 31.07 20.4409 31.04C20.4409 31.02 20.4409 30.91 20.4409 30.77V30.58H20.4308Z" fill="#231F20"/>
<path d="M21.6909 30.84C21.6909 30.97 21.6909 31.07 21.6909 31.13C21.6809 31.17 21.6808 31.19 21.6608 31.2C21.6408 31.2 21.6308 31.2 21.6108 31.2C21.5908 31.2 21.5908 31.21 21.5908 31.21C21.5908 31.22 21.6008 31.22 21.6208 31.22C21.6708 31.22 21.7608 31.22 21.7908 31.22C21.8708 31.22 21.9608 31.23 22.1608 31.23C22.2208 31.23 22.2208 31.23 22.2308 31.19C22.2408 31.16 22.2509 31.07 22.2509 31.04C22.2509 31.03 22.2508 31.01 22.2408 31.01C22.2308 31.01 22.2308 31.02 22.2208 31.03C22.2108 31.08 22.2008 31.11 22.1608 31.13C22.1308 31.15 22.0708 31.15 22.0308 31.15C21.8908 31.15 21.8708 31.13 21.8708 31.04C21.8708 31 21.8708 30.88 21.8708 30.83V30.73C21.8708 30.72 21.8709 30.72 21.8809 30.72C21.9109 30.72 22.0409 30.72 22.0709 30.72C22.1209 30.72 22.1408 30.74 22.1508 30.77C22.1508 30.79 22.1508 30.8 22.1508 30.82C22.1508 30.83 22.1508 30.83 22.1608 30.83C22.1708 30.83 22.1708 30.81 22.1708 30.81C22.1708 30.8 22.1808 30.75 22.1808 30.72C22.1908 30.65 22.1909 30.63 22.1909 30.62L22.1808 30.61C22.1708 30.61 22.1708 30.62 22.1608 30.63C22.1508 30.64 22.1308 30.65 22.1008 30.65C22.0708 30.66 21.9108 30.66 21.8908 30.66C21.8808 30.66 21.8809 30.65 21.8809 30.64V30.3C21.8809 30.29 21.8908 30.29 21.8908 30.29C21.9108 30.29 22.0608 30.29 22.0808 30.29C22.1508 30.3 22.1608 30.31 22.1708 30.34C22.1808 30.36 22.1808 30.38 22.1808 30.39C22.1808 30.4 22.1909 30.41 22.1909 30.41C22.2009 30.41 22.2108 30.4 22.2108 30.39C22.2108 30.37 22.2208 30.32 22.2208 30.3C22.2308 30.24 22.2308 30.22 22.2308 30.22C22.2308 30.21 22.2308 30.21 22.2208 30.21C22.2108 30.21 22.2009 30.22 22.2009 30.22C22.1909 30.22 22.1608 30.23 22.1408 30.23C22.1108 30.23 21.8508 30.23 21.8008 30.23C21.7608 30.23 21.6808 30.23 21.6108 30.23C21.5908 30.23 21.5808 30.23 21.5808 30.24C21.5808 30.25 21.5908 30.25 21.6008 30.25C21.6208 30.25 21.6408 30.25 21.6508 30.25C21.7008 30.26 21.7108 30.28 21.7108 30.33C21.7108 30.37 21.7108 30.41 21.7108 30.61L21.6909 30.84Z" fill="#231F20"/>
<path d="M22.9108 30.6C22.9108 30.4 22.9108 30.36 22.9108 30.32C22.9108 30.27 22.9208 30.25 22.9608 30.24C22.9808 30.24 23.0009 30.24 23.0109 30.24C23.0309 30.24 23.0308 30.24 23.0308 30.23C23.0308 30.22 23.0209 30.22 23.0009 30.22C22.9509 30.22 22.8509 30.22 22.8209 30.22C22.7809 30.22 22.7008 30.22 22.6408 30.22C22.6208 30.22 22.6108 30.22 22.6108 30.23C22.6108 30.24 22.6209 30.24 22.6309 30.24C22.6509 30.24 22.6708 30.24 22.6808 30.24C22.7208 30.25 22.7308 30.27 22.7408 30.32C22.7408 30.36 22.7408 30.4 22.7408 30.6V30.84C22.7408 30.97 22.7408 31.07 22.7308 31.13C22.7308 31.17 22.7209 31.19 22.6909 31.2C22.6809 31.2 22.6608 31.2 22.6408 31.2C22.6208 31.2 22.6208 31.21 22.6208 31.21C22.6208 31.22 22.6308 31.22 22.6408 31.22C22.7008 31.22 22.7809 31.22 22.8109 31.22C22.9209 31.22 23.0109 31.23 23.2009 31.23C23.2709 31.23 23.2808 31.22 23.2808 31.19C23.2908 31.15 23.3008 31.05 23.3008 31.04C23.3008 31.02 23.3008 31.02 23.2908 31.02C23.2808 31.02 23.2708 31.03 23.2708 31.04C23.2708 31.07 23.2508 31.1 23.2308 31.12C23.2008 31.15 23.1409 31.16 23.0709 31.16C22.9709 31.16 22.9308 31.15 22.9108 31.13C22.8908 31.11 22.8908 31.02 22.8908 30.84L22.9108 30.6Z" fill="#231F20"/>
<path d="M23.7408 30.84C23.7408 30.97 23.7408 31.08 23.7308 31.14C23.7308 31.17 23.7209 31.2 23.6909 31.2C23.6809 31.2 23.6608 31.2 23.6408 31.2C23.6208 31.2 23.6208 31.21 23.6208 31.21C23.6208 31.22 23.6308 31.22 23.6508 31.22C23.7008 31.22 23.7909 31.22 23.8209 31.22C23.8609 31.22 23.9408 31.22 24.0308 31.22C24.0408 31.22 24.0508 31.22 24.0508 31.21C24.0508 31.2 24.0408 31.2 24.0308 31.2C24.0108 31.2 23.9808 31.2 23.9608 31.2C23.9208 31.19 23.9108 31.17 23.9108 31.14C23.9008 31.08 23.9008 30.98 23.9008 30.84V30.6C23.9008 30.4 23.9008 30.36 23.9008 30.32C23.9008 30.27 23.9109 30.25 23.9509 30.24C23.9709 30.24 23.9808 30.24 23.9908 30.24C24.0008 30.24 24.0109 30.24 24.0109 30.22C24.0109 30.21 24.0008 30.21 23.9808 30.21C23.9308 30.21 23.8509 30.21 23.8209 30.21C23.7809 30.21 23.7008 30.21 23.6408 30.21C23.6208 30.21 23.6108 30.21 23.6108 30.22C23.6108 30.23 23.6209 30.24 23.6309 30.24C23.6409 30.24 23.6608 30.24 23.6808 30.24C23.7108 30.25 23.7208 30.27 23.7208 30.32C23.7208 30.36 23.7208 30.4 23.7208 30.6L23.7408 30.84Z" fill="#231F20"/>
<path d="M24.6608 31.24C24.7308 31.24 24.8108 31.23 24.8708 31.19C24.9708 31.13 25.0009 31.04 25.0009 30.96C25.0009 30.83 24.9408 30.74 24.7808 30.62L24.7408 30.59C24.6308 30.5 24.6008 30.46 24.6008 30.4C24.6008 30.32 24.6609 30.26 24.7609 30.26C24.8409 30.26 24.8808 30.3 24.9108 30.33C24.9408 30.36 24.9509 30.41 24.9509 30.42C24.9509 30.44 24.9608 30.44 24.9608 30.44C24.9608 30.44 24.9808 30.43 24.9808 30.4C24.9808 30.29 24.9908 30.25 24.9908 30.24C24.9908 30.23 24.9808 30.22 24.9708 30.22C24.9308 30.21 24.8808 30.2 24.7908 30.2C24.6008 30.2 24.4808 30.3 24.4808 30.45C24.4808 30.56 24.5308 30.66 24.6808 30.77L24.7408 30.82C24.8508 30.91 24.8708 30.97 24.8708 31.04C24.8708 31.11 24.8209 31.19 24.6909 31.19C24.6109 31.19 24.5309 31.15 24.5009 31.05C24.4909 31.03 24.4808 31 24.4808 30.98C24.4808 30.97 24.4808 30.96 24.4708 30.96C24.4608 30.96 24.4509 30.98 24.4509 31C24.4509 31.02 24.4409 31.1 24.4409 31.17C24.4409 31.2 24.4508 31.21 24.4708 31.21C24.5208 31.24 24.5908 31.24 24.6608 31.24Z" fill="#231F20"/>
<path d="M20.6408 3.7C20.6508 3.5 20.2809 3.35 20.1909 3.34C20.0309 3.33 19.8409 3.65 19.6309 3.86C19.4509 2.9 19.5408 2.48 19.6408 2.06C20.0508 2.8 20.6008 2.96 20.8908 2.92C19.9108 2.14 20.0808 1.43 19.7808 1.4C19.6108 1.38 19.4908 1.39 19.4008 1.39C19.0608 1.39 19.0108 2.05 18.9708 2.36C18.7508 1.95 18.5308 1.6 18.1508 1.12C17.7908 0.199999 17.3508 0.429998 16.9008 0.00999832C17.2508 0.539998 16.9608 0.86 17.7808 1.25C17.9908 1.45 18.2408 1.76 18.4008 2.02C18.2608 2.2 18.1708 2.3 18.0508 2.42C17.9508 2.57 17.9008 3.15 17.5908 3.58C18.0508 3.38 18.2308 3.1 18.4008 2.82C19.8608 3.92 18.6808 6.74 18.3408 7.36C18.0208 7.14 17.6108 7.02 17.2308 6.95L17.1909 6.82L16.8508 5.71H17.0009C17.1809 5.71 17.2309 5.59 17.1909 5.49L18.2009 5.8L18.6408 5.94L18.3708 5.56L17.9008 4.91L18.3708 4.27L18.6408 3.89L18.2009 4.03L17.2908 4.31C17.2308 4.11 17.0608 4.01 16.8708 3.98L17.1708 2.95L17.3008 2.51L16.9308 2.78L16.2808 3.25L15.6309 2.78L15.2609 2.51L15.3908 2.95L15.6909 3.98C15.5109 4.01 15.3408 4.1 15.2708 4.31L14.3608 4.03L13.9208 3.89L14.1909 4.27L14.6608 4.91L14.1909 5.56L13.9208 5.94L14.3608 5.8L15.3708 5.49C15.3408 5.59 15.3809 5.71 15.5609 5.71H15.7208L15.3809 6.82L15.3408 6.95C14.9508 7.02 14.5308 7.15 14.2108 7.37C13.2208 5.46 13.5008 3.53 14.3308 2.89C14.3108 3.3 14.6708 3.84 14.8308 3.96C14.7208 3.54 14.9109 2.8 14.6909 2.61C14.5409 2.48 14.3109 2.42 14.0609 2.42C14.2309 2.15 14.4608 1.8 14.8508 1.29C15.4308 1.02 15.6008 0.34 15.7408 0C15.1108 0.23 14.6508 0.559998 14.5508 1.08C14.3308 1.38 14.0808 1.72 13.8008 2.13C13.8108 1.63 13.5408 1.46 13.1808 1.43C12.1208 1.65 12.2008 2.42 11.2908 2.95C11.9108 3.17 12.8808 1.8 13.2208 1.95C13.2708 2.79 13.0908 3.45 13.0908 3.9C12.9308 3.72 12.8508 3.6 12.7108 3.58C12.5808 3.56 12.2308 3.59 11.9808 3.85C11.9108 4.27 11.9308 5.07 11.5308 6.03C12.1208 5.49 12.4109 4.42 12.5009 4.11C12.6509 4.32 12.8108 4.78 12.8508 5.17C12.9208 5.94 13.3908 7.2 13.7908 7.82C13.6808 8.03 13.6408 8.27 13.6808 8.53C13.3708 8.76 13.3409 9.08 13.4409 9.3C13.5609 9.53 13.8608 9.69 14.2208 9.54L14.3308 9.49C14.7108 9.34 15.4109 9.04 16.2609 9.04C17.1109 9.04 17.8109 9.33 18.1909 9.49L18.3008 9.54C18.6608 9.69 18.9608 9.53 19.0808 9.3C19.1908 9.08 19.1508 8.76 18.8408 8.53C18.8808 8.25 18.8408 7.99 18.7108 7.76L18.7208 7.77C19.4408 6.74 19.4908 4.76 20.0908 4.2C20.1408 4.89 20.5108 5.47 20.8708 5.55C20.6208 5.08 20.6208 4.13 20.6408 3.7ZM17.3109 4.62L17.8408 4.45L17.5808 4.81L17.5109 4.9L17.5808 4.99L17.8408 5.35L17.1608 5.14C17.2308 5.01 17.2809 4.85 17.3109 4.62ZM14.7408 5.35L15.0009 4.99L15.0709 4.9L15.0009 4.81L14.7408 4.45L15.2708 4.62C15.3008 4.85 15.3508 5.01 15.4108 5.15L14.7408 5.35ZM16.8708 5.18H16.4509L16.5009 4.43C17.1309 4.14 17.0708 4.73 16.8708 5.18ZM16.7408 6.45L16.3809 6.19L16.2908 6.12L16.2009 6.19L15.8408 6.45L16.0709 5.69H16.5109L16.7408 6.45ZM16.2009 3.55L16.2908 3.62L16.3809 3.55L16.7408 3.28L16.5308 3.99C16.5208 3.99 16.5109 3.99 16.5109 4C16.4709 3.91 16.3808 3.85 16.2808 3.85C16.1808 3.85 16.0909 3.91 16.0609 4C16.0509 4 16.0408 4 16.0308 3.99L15.8209 3.28L16.2009 3.55ZM15.7208 5.18C15.5208 4.73 15.4608 4.15 16.0908 4.43L16.1408 5.18H15.7208ZM16.2908 6.51L16.7908 6.88C16.5708 6.86 16.3908 6.86 16.2908 6.86C16.1808 6.86 16.0008 6.87 15.7908 6.88L16.2908 6.51ZM14.2208 9.15L14.1208 9.2C13.9708 9.26 13.8708 9.21 13.8308 9.14C13.7908 9.06 13.8109 8.93 14.0009 8.82C14.0209 8.81 14.0509 8.79 14.0709 8.78L14.4308 9.07C14.3508 9.1 14.2808 9.12 14.2208 9.15ZM15.4308 8.76L15.0609 8.39C15.3709 8.31 15.6909 8.26 16.0009 8.24L16.2208 8.67C15.9408 8.68 15.6808 8.71 15.4308 8.76ZM17.4908 8.84L17.2708 8.34C17.6008 8.4 17.9209 8.5 18.2009 8.62L18.3308 9.13C18.1108 9.04 17.8308 8.93 17.4908 8.84ZM16.2908 7.85C15.5908 7.85 14.8009 8.02 14.1909 8.28C14.2009 8.14 14.2508 8.03 14.3308 7.93C14.6808 7.5 15.6108 7.35 16.2908 7.35C16.9708 7.35 17.8909 7.5 18.2509 7.93C18.3409 8.03 18.3808 8.15 18.3908 8.28C17.7908 8.01 17.0008 7.85 16.2908 7.85Z" fill="#231F20"/>
<path d="M11.4608 19.79C11.1908 19.79 11.0208 19.8 11.0108 19.8C10.9508 20.58 10.9808 21.28 11.0808 21.93C11.3608 21.47 11.6308 21.01 11.6208 20.7C11.6208 20.36 11.5408 20.06 11.4608 19.79Z" fill="#231F20"/>
<path d="M11.6608 19.79C11.7408 20.06 11.8109 20.35 11.8209 20.68C11.8309 21.06 11.5509 21.53 11.2509 22.02C11.2209 22.08 11.1808 22.14 11.1508 22.19C12.0108 26.43 16.1208 27.85 16.1208 27.85V19.79C16.1208 19.8 13.0308 19.79 11.6608 19.79ZM14.7408 24.83C14.5408 24.87 14.2109 24.89 14.0009 24.89C13.7909 24.89 13.4609 24.87 13.2509 24.83C13.2709 24.74 13.3008 24.62 13.3308 24.5C13.1808 24.48 13.0208 24.43 12.9008 24.38C12.9608 24.16 13.0608 23.94 13.1408 23.64C13.4108 23.7 13.6808 23.72 13.9908 23.72C14.3008 23.72 14.5708 23.7 14.8408 23.64C14.9208 23.94 15.0208 24.16 15.0908 24.38C14.9708 24.42 14.8108 24.48 14.6508 24.5C14.6908 24.62 14.7208 24.74 14.7408 24.83ZM13.0609 23.07C13.2109 23.01 13.8209 22.98 14.0009 22.98C14.1809 22.98 14.7808 23.01 14.9308 23.07C14.9508 23.15 14.9509 23.26 14.9409 23.35C14.7109 23.42 14.3009 23.45 14.0009 23.45C13.7009 23.45 13.2909 23.41 13.0609 23.35C13.0409 23.26 13.0409 23.14 13.0609 23.07ZM15.3408 21.48C15.1108 22.02 14.8909 22.58 14.8209 22.75C14.7009 22.73 14.5709 22.72 14.4409 22.72C14.6009 22.24 14.7809 21.56 14.9409 21.14C15.0409 20.84 15.5508 20.97 15.3408 21.48ZM14.0009 20.68C14.0409 20.43 14.7508 20.38 14.6108 20.93C14.4808 21.49 14.3108 22.14 14.1808 22.7C14.1208 22.7 14.0609 22.7 14.0009 22.7C13.9409 22.7 13.8809 22.7 13.8209 22.7C13.6909 22.14 13.5208 21.49 13.3908 20.93C13.2508 20.38 13.9609 20.43 14.0009 20.68ZM13.0508 21.13C13.2108 21.56 13.3908 22.24 13.5508 22.71C13.4208 22.71 13.2908 22.73 13.1708 22.74C13.1008 22.57 12.8808 22.01 12.6508 21.47C12.4308 20.97 12.9408 20.84 13.0508 21.13Z" fill="#231F20"/>
<path d="M20.6208 20.58L20.6008 20.38H20.8008C21.0708 20.38 21.2108 20.12 21.2808 19.82C20.2308 19.81 16.4608 19.82 16.4608 19.82V23.71C16.7708 23.48 17.0708 23.28 17.4708 23.16V22.49V22.31H17.6508H17.8708C17.8908 21.37 18.1208 20.69 18.5508 20.24L18.6808 20.11L18.8109 20.24C19.2509 20.69 19.4708 21.37 19.4908 22.31H19.7208H19.9008V22.49V23.22C20.3308 23.4 20.6208 23.67 20.8408 23.96C21.2008 23.23 21.4608 22.4 21.5508 21.43C21.5308 21.43 21.5108 21.43 21.4908 21.43C21.0908 21.43 20.6608 21.14 20.6208 20.58Z" fill="#231F20"/>
<path d="M21.5609 19.8199C21.5609 19.8199 21.5308 19.8199 21.4808 19.8199C21.3808 20.2599 21.1809 20.5699 20.8109 20.5699C20.8409 21.0099 21.1709 21.2399 21.5009 21.2399C21.5209 21.2399 21.5509 21.2299 21.5709 21.2299C21.6109 20.7899 21.6109 20.3199 21.5609 19.8199Z" fill="#231F20"/>
<path d="M18.6808 23.36C17.5408 23.36 17.0908 23.68 16.4708 24.16V27.88C16.4708 27.88 19.1808 26.95 20.6608 24.32C20.3208 23.81 19.8208 23.36 18.6808 23.36ZM19.6208 24.86L19.2808 24.47L18.7009 24.99L18.9409 25.27C18.9409 25.27 19.1808 25.15 19.4008 25.4C19.2408 25.54 18.9508 25.79 18.7908 25.93C18.5708 25.68 18.7208 25.45 18.7208 25.45L18.4808 25.18L17.7708 25.82L17.5408 25.55L18.2708 24.94L18.0109 24.64C18.0109 24.64 17.9108 24.72 17.7708 24.85C17.5608 24.61 17.4008 24.29 17.5508 23.89C17.9708 23.8 18.2608 24 18.4708 24.24C18.3308 24.37 18.2308 24.45 18.2308 24.45L18.5009 24.76L19.1008 24.26L18.7609 23.86C19.0709 23.82 19.3408 23.93 19.4908 24.11C19.6208 24.28 19.6908 24.56 19.6208 24.86Z" fill="#231F20"/>
<path d="M11.1708 17.8C11.4608 18.03 11.5708 18.21 11.4808 19.01C11.4708 19.11 11.5208 19.3 11.5808 19.5H21.3408C21.3508 19.4 21.3608 19.29 21.3608 19.2C21.3708 18.76 21.2908 18.42 21.1508 18.27C21.1108 18.22 21.0508 18.2 20.9608 18.2H20.9509L20.5609 18.24L20.7708 17.91C20.9808 17.58 21.2709 17.39 21.5709 17.37V14.47H11.0408V17.7C11.0808 17.72 11.1108 17.74 11.1408 17.77L11.1708 17.8ZM17.3809 17.41V17.21L16.9008 17.2C17.0108 16.7 18.0009 16.05 18.4409 15.9C18.4209 15.35 19.1408 15.17 19.7208 15.15C20.4408 15.13 20.6108 15.91 20.6108 16.14C20.6108 16.46 20.5309 17.16 20.1309 17.38C19.5509 17.7 19.0609 17.26 19.0609 16.86C19.0609 16.42 19.3609 16.17 19.8809 16.23C20.4009 16.29 20.3608 16 19.9708 15.9C19.7808 15.85 18.9508 15.81 18.6808 16.42C18.5208 16.42 18.3509 16.36 18.2509 16.26C18.1409 16.4 17.9708 16.49 17.7408 16.56C17.9408 16.97 18.3508 16.9 18.6008 16.71C18.5908 16.76 18.5908 16.82 18.5908 16.89C18.5908 17.89 19.6609 18.15 20.3209 17.77C20.2109 18.1 20.2609 18.51 20.3109 18.78C20.3109 18.78 18.0608 18.78 17.7208 18.78C17.7608 18.5 18.1108 18.19 18.4008 17.98L18.1708 17.62C17.8808 17.74 17.6209 17.86 17.3209 17.94C16.5909 18.13 16.6309 17.62 17.3809 17.41ZM15.5508 18.23C15.4508 18.37 14.8408 18.56 14.6808 18.47C14.4208 18.31 14.3008 17.98 14.3608 17.83C14.4308 17.64 15.1109 17.46 15.3209 17.53C15.5409 17.6 15.6308 18.11 15.5508 18.23ZM11.9608 16.63C12.5308 16.31 12.8309 16.07 13.1309 15.59C12.9109 15.48 12.6409 15.28 12.4409 15C13.5209 15.31 14.0808 15.47 15.3508 15.01C15.1408 15.34 14.8309 15.54 14.5709 15.7C14.8609 16.18 15.1409 16.73 15.2509 17.16C14.8709 17.13 14.4308 17.22 14.1208 17.51C13.6408 17.53 13.0408 17.68 12.7108 16.6C12.5308 16.69 12.3608 16.8 12.3608 16.8C12.5508 17.51 12.9108 17.99 13.8708 17.89C13.9208 18.12 13.9708 18.25 14.0808 18.43C13.6908 18.66 12.7109 19.24 11.9509 18.57C11.9609 17.89 11.9608 16.63 11.9608 16.63Z" fill="#231F20"/>
<path d="M11.0408 17.93V19.49H11.3908C11.3308 19.29 11.2808 19.1 11.3008 18.98C11.3808 18.19 11.2608 18.11 11.0408 17.93Z" fill="#231F20"/>
<path d="M21.5609 19.49V17.55C21.3409 17.57 21.1008 17.71 20.9208 18C20.9408 18 20.9608 17.99 20.9808 17.99C21.4208 17.99 21.5608 18.58 21.5508 19.19C21.5508 19.29 21.5408 19.39 21.5308 19.49H21.5609V19.49Z" fill="#231F20"/>
<path d="M13.6008 16.83C13.7808 16.92 14.0008 16.82 14.2408 16.85C14.1908 16.75 14.1508 16.68 14.1808 16.53C14.2308 16.24 14.0108 16.18 13.9008 16.18C13.6408 16.2 13.4908 16.25 13.2108 16.18C13.3908 16.37 13.3408 16.71 13.6008 16.83Z" fill="#231F20"/>
<path d="M11.3008 18.97C11.3908 18.16 11.2608 18.1 11.0308 17.91C10.8308 17.74 10.4908 17.69 10.1608 17.46C9.92081 17.29 9.85082 17.06 9.55082 16.74C9.61082 16.06 10.1008 15.22 10.4608 15.03C10.5208 15 10.5008 13.95 10.5008 13.95C10.5008 13.95 10.7408 13.94 10.7208 13.93C10.4008 13.74 10.0108 13.88 9.73081 14.21C9.46081 14.43 8.84081 14.85 8.41081 14.99C7.83081 14.5 6.92084 14.07 6.26084 13.41C6.26084 13.41 7.14081 13.4 7.54081 13.24C7.64081 13.18 7.93083 12.73 7.81083 12.3C7.67083 12.25 7.48081 12.15 7.29081 12.04C7.05081 11.9 6.81079 11.76 6.71079 11.67C6.33079 11.38 6.18079 11.13 5.52079 10.96C5.56079 10.66 5.63082 10.73 5.92082 10.53C6.29082 10.28 6.50079 9.98 6.64079 9.69C6.76079 9.46 6.62079 8.98 6.33079 9.59C6.23079 9.8 5.94083 10.09 5.62083 10.17C5.64083 9.98 5.6508 9.88 5.6508 9.77C6.6208 9.09 6.52084 8.49 6.44084 7.93C6.40084 7.6 6.0808 7.47 6.0908 7.81C6.1008 8.04 6.30079 8.67 5.64079 9.04C5.62079 8.76 5.55082 8.63 5.49082 8.48C6.08082 7.71 5.83079 6.96 5.58079 6.62C5.43079 6.4 5.04079 6.33 5.21079 6.67C5.36079 6.95 5.5908 7.72 5.1508 8.03C5.0008 7.84 4.82084 7.77 4.76084 7.52C4.80084 6.68 4.7508 6.17 4.6508 5.87C4.5508 5.59 4.28082 5.42 4.30082 5.83C4.32082 6.29 4.36084 6.89 4.32084 6.92C4.28084 6.96 3.6608 6.38 3.4008 6.21C3.1408 6.03 2.84079 6.1 3.14079 6.44C3.40079 6.75 4.1908 7.33 4.0908 7.52C4.0308 7.64 3.46082 7.17 3.17082 7.07C2.87082 6.97 2.7808 7.13 3.0308 7.33C3.4308 7.66 3.70083 7.88 4.37083 8.11C5.03083 8.33 5.37081 9.25 5.16081 10.57C5.15081 10.63 5.0408 10.62 4.9708 10.6C4.9408 10.1 4.85081 9.5 4.73081 9.23C4.57081 8.88 4.26084 8.88 4.38084 9.34C4.47084 9.72 4.52079 10.12 4.46079 10.61C3.91079 10.52 3.7008 10.37 3.4708 10.23C3.4408 9.97 3.57081 9.56 3.60081 9.18C3.62081 8.81 3.4008 8.58 3.2808 9.04C3.1608 9.48 3.08084 9.7 3.01084 10.02C2.86084 9.97 2.69082 9.89 2.61082 9.81C2.57082 9.77 2.61084 9.27 2.57084 8.9C2.53084 8.49 2.37083 8.5 2.25083 8.86C2.20083 9.03 2.15079 9.24 2.14079 9.51C1.95079 9.39 1.81081 9.17 1.79081 8.99C1.82081 8.57 1.89084 8.11 1.94084 7.83C1.98084 7.63 1.84083 7.21 1.68083 7.71C1.57083 8.07 1.54079 8.37 1.46079 8.62C1.32079 8.61 1.14081 7.79 1.04081 7.27C1.00081 7.03 0.800843 6.76 0.760843 7.29C0.720843 7.87 0.840824 8.45 0.990824 8.72C0.710824 8.69 0.440824 8.18 0.240824 7.89C0.0708237 7.63 -0.00916658 7.9 0.00083342 8.01C0.170833 9.04 0.990829 9.41 1.37083 9.48C1.95083 10.31 3.05082 10.67 3.99082 11.07C2.78082 11.06 2.4608 11.54 1.9008 11.23C1.9208 11.69 2.15083 11.9 2.37083 12.01C2.52083 12.08 2.68083 12.1 2.75083 12.12C2.85083 12.68 3.38079 12.65 3.83079 12.68C3.72079 13.76 3.85082 15.2 4.80082 16.26C4.77082 16.81 4.74082 17.53 4.74082 18.01C3.96082 18.73 3.27082 20.25 2.99082 21.09C2.78082 21.72 2.48083 22.21 2.00083 22.43C2.39083 22.85 2.97082 22.64 3.30082 22.41C3.32082 22.78 3.4108 23.04 3.4708 23.26C3.2508 23.59 3.10083 23.82 3.12083 24.23C2.87083 24.3 2.69083 24.46 2.56083 24.63C2.47083 24.74 2.57082 25.24 2.67082 25.45C2.98082 26.15 2.74083 27.72 2.68083 28.18C2.81083 28.19 3.05081 28.2 3.10081 28C3.18081 28.07 3.37079 28.21 3.46079 28.51C3.44079 28.64 3.36082 29.12 3.61082 29.18C3.81082 29.23 4.68082 29.2 4.80082 29.05C4.71082 28.95 4.5608 28.72 4.4708 28.49C4.4708 28.25 4.45084 27.96 4.38084 27.84C4.28084 27.67 4.03082 27.26 3.86082 27.1C3.83082 26.81 3.80083 25.53 3.93083 25.04C4.16083 24.88 5.70079 23.74 6.02079 22.64C6.30079 22.74 6.2208 23.5 6.2208 24.49C6.2208 24.76 6.54081 24.89 6.73081 24.92C7.15081 24.97 7.74081 25.37 8.41081 26.35C8.54081 26.21 8.71079 26.08 8.71079 26.08C8.80079 26.2 8.90079 26.48 8.96079 26.66C9.03079 26.79 9.57081 26.87 9.98081 26.75C10.1208 26.71 10.2008 26.69 10.2908 26.54C9.77081 25.63 9.4508 25.02 8.7808 24.52C8.4708 24.29 8.06079 24.17 7.71079 23.95C7.94079 23.52 8.58084 21.48 8.19084 20.73C8.06084 20.49 7.58082 20.24 6.99082 20.35C7.48082 19.75 8.48083 18.58 8.62083 18.22C8.73083 18.36 9.33079 18.26 9.77079 18.44C9.93079 18.5 10.3808 19.09 10.4008 19.28C10.4408 19.64 10.4608 20.07 10.2108 21.06C10.3808 21.03 10.3608 21.02 10.5308 20.95C10.5608 21.21 10.4808 21.42 10.2508 21.82C10.3108 22.17 10.4708 22.72 10.6308 22.82C10.8608 22.16 11.6808 21.21 11.6608 20.66C11.6208 19.92 11.2708 19.29 11.3008 18.97Z" fill="#231F20"/>
<path d="M44.8809 18.26C44.8809 18.26 44.6408 18.4 44.1408 18.4C43.4908 18.4 42.9108 18.02 42.6008 17.81C42.2008 17.55 41.5508 17.17 40.9008 16.97C39.6508 16.97 38.8309 16.62 38.1909 15.79C37.5509 14.97 37.2308 13.91 37.2308 12.69C37.2308 10.88 37.9208 9.42999 39.1208 8.77999C39.6108 8.50999 40.2208 8.37 40.8508 8.37C43.0808 8.37 44.4509 9.99 44.4509 12.62C44.4509 14.43 43.8008 15.8 42.8008 16.46C43.0308 16.55 43.3508 16.76 43.5508 16.88C43.8508 17.06 44.2108 17.23 44.5808 17.23C44.9408 17.23 45.3308 17.17 45.3308 17.17L44.8809 18.26ZM42.2908 10.73C42.1608 10.31 41.7109 9.66999 40.8209 9.66999C40.2509 9.66999 39.7608 9.95999 39.5208 10.4C39.2308 10.94 39.1008 11.68 39.1008 12.69C39.1008 14.13 39.3408 15.03 39.8508 15.4C40.1108 15.59 40.4508 15.69 40.8508 15.69C42.0208 15.69 42.5109 14.8 42.5109 12.67C42.5109 11.81 42.4408 11.19 42.2908 10.73Z" fill="#231F20"/>
<path d="M49.7609 17.01C49.5609 16.86 49.3908 16.66 49.2808 16.41C48.8808 16.8 48.3008 17 47.6508 17C46.7808 17 46.0408 16.59 45.8308 16C45.7308 15.72 45.7009 15.4 45.7009 14.77V10.83L47.2908 10.53V14.49C47.2908 15.05 47.3408 15.33 47.4208 15.5C47.5008 15.67 47.7408 15.79 47.9808 15.79C48.3808 15.79 48.8608 15.5 48.9808 15.2V10.85L50.5208 10.53V15.24C50.5208 15.65 50.6508 16.07 50.9008 16.36L49.7609 17.01Z" fill="#231F20"/>
<path d="M53.5908 14.26V14.31C53.5908 15.26 54.0608 15.8 54.8908 15.8C55.4508 15.8 55.9609 15.59 56.4509 15.19L57.0808 16.15C56.3708 16.73 55.6209 17 54.7609 17C52.9909 17 51.8508 15.75 51.8508 13.81C51.8508 12.7 52.0808 11.97 52.6208 11.37C53.1308 10.8 53.7409 10.54 54.5609 10.54C55.2709 10.54 55.9508 10.78 56.3408 11.19C56.9108 11.77 57.1608 12.6 57.1608 13.89V14.26H53.5908ZM55.4808 13.01C55.4808 12.55 55.4308 12.31 55.2908 12.08C55.1308 11.84 54.9108 11.72 54.5808 11.72C53.9708 11.72 53.6208 12.2 53.6208 13.06V13.08H55.4808V13.01V13.01Z" fill="#231F20"/>
<path d="M59.6808 14.26V14.31C59.6808 15.26 60.1508 15.8 60.9808 15.8C61.5408 15.8 62.0508 15.59 62.5408 15.19L63.1708 16.15C62.4608 16.73 61.7108 17 60.8508 17C59.0808 17 57.9409 15.75 57.9409 13.81C57.9409 12.7 58.1708 11.97 58.7108 11.37C59.2208 10.8 59.8308 10.54 60.6508 10.54C61.3608 10.54 62.0308 10.78 62.4308 11.19C63.0008 11.77 63.2509 12.6 63.2509 13.89V14.26H59.6808ZM61.5709 13.01C61.5709 12.55 61.5208 12.31 61.3708 12.08C61.2208 11.84 60.9908 11.72 60.6608 11.72C60.0508 11.72 59.7009 12.2 59.7009 13.06V13.08H61.5709V13.01Z" fill="#231F20"/>
<path d="M67.6508 16.84V12.83C67.6508 12.13 67.5308 11.93 67.1108 11.93C66.7908 11.93 66.3608 12.14 65.9908 12.48V16.83H64.3809V12.37C64.3809 11.84 64.3108 11.33 64.1708 10.93L65.6008 10.52C65.7508 10.77 65.8308 11.04 65.8308 11.29C66.0708 11.12 66.2708 10.98 66.5408 10.83C66.8708 10.66 67.2908 10.57 67.6508 10.57C68.3408 10.57 68.9409 10.93 69.1309 11.46C69.2109 11.69 69.2509 11.95 69.2509 12.34V16.84H67.6508Z" fill="#231F20"/>
<path d="M72.7509 17.03C71.9909 17.03 71.1609 16.79 70.2609 16.32L70.8408 15.14C71.3308 15.44 72.1908 15.84 72.8908 15.84C73.3508 15.84 73.7108 15.54 73.7108 15.14C73.7108 14.72 73.4109 14.5 72.7609 14.38L72.0408 14.25C71.6308 14.18 71.1208 13.89 70.9008 13.62C70.6908 13.35 70.5508 12.91 70.5508 12.51C70.5508 11.31 71.5008 10.5 72.9308 10.5C73.9208 10.5 74.5709 10.8 75.1309 11.08L74.6008 12.16C73.9908 11.85 73.5408 11.71 73.0808 11.71C72.6008 11.71 72.3008 11.95 72.3008 12.31C72.3008 12.62 72.5109 12.79 73.0709 12.93L73.8109 13.12C74.5709 13.31 74.8208 13.54 75.0408 13.82C75.2708 14.11 75.3809 14.46 75.3809 14.87C75.3809 16.16 74.3309 17.03 72.7509 17.03Z" fill="#231F20"/>
<path d="M78.1008 16.98C77.4108 16.98 76.8608 16.65 76.6708 16.14C76.5508 15.83 76.5208 15.64 76.5208 14.76V10.16C76.5208 9.34999 76.5008 8.85999 76.4308 8.30999L78.0808 7.92999C78.1408 8.26999 78.1708 8.65999 78.1708 9.52999V14.33C78.1708 15.39 78.1808 15.54 78.2708 15.7C78.3308 15.81 78.4608 15.87 78.5908 15.87C78.6508 15.87 78.6908 15.87 78.7708 15.85L79.0508 16.81C78.7808 16.92 78.4508 16.98 78.1008 16.98Z" fill="#231F20"/>
<path d="M84.0109 17.15C83.6409 17 83.3008 16.72 83.1408 16.4C83.0208 16.52 82.8908 16.64 82.7708 16.73C82.4708 16.95 82.0408 17.07 81.5308 17.07C80.1608 17.07 79.4108 16.37 79.4108 15.14C79.4108 13.7 80.4108 13.02 82.3708 13.02C82.4908 13.02 82.6008 13.02 82.7308 13.03V12.78C82.7308 12.09 82.6009 11.87 82.0109 11.87C81.4909 11.87 80.8908 12.12 80.2308 12.57L79.5408 11.42C79.8708 11.22 80.1108 11.1 80.5408 10.92C81.1408 10.67 81.6608 10.56 82.2308 10.56C83.2708 10.56 83.9808 10.95 84.2208 11.64C84.3008 11.89 84.3408 12.08 84.3308 12.74L84.2908 14.81C84.2808 15.49 84.3308 15.77 84.8708 16.18L84.0109 17.15ZM82.6408 14.14C81.5208 14.14 81.1408 14.35 81.1408 15.08C81.1408 15.56 81.4408 15.89 81.8508 15.89C82.1508 15.89 82.4509 15.73 82.6909 15.47L82.7208 14.15L82.6408 14.14Z" fill="#231F20"/>
<path d="M89.2708 16.84V12.83C89.2708 12.13 89.1508 11.93 88.7308 11.93C88.4108 11.93 87.9908 12.14 87.6108 12.48V16.83H86.0009V12.37C86.0009 11.84 85.9308 11.33 85.7808 10.93L87.2108 10.52C87.3608 10.77 87.4409 11.04 87.4409 11.29C87.6809 11.12 87.8808 10.98 88.1508 10.83C88.4708 10.66 88.8909 10.57 89.2609 10.57C89.9409 10.57 90.5508 10.93 90.7408 11.46C90.8208 11.69 90.8608 11.95 90.8608 12.34V16.84H89.2708Z" fill="#231F20"/>
<path d="M96.2408 16.84C96.1908 16.74 96.1708 16.65 96.1408 16.48C95.7408 16.83 95.2808 17 94.7208 17C93.1608 17 92.1708 15.78 92.1708 13.87C92.1708 11.95 93.2409 10.62 94.8109 10.62C95.2509 10.62 95.6008 10.73 95.9008 10.97C95.8808 10.84 95.8508 10.42 95.8508 10.06V7.94L97.4509 8.19V14.59C97.4509 16.11 97.5708 16.6 97.6808 16.84H96.2408ZM95.8809 12.3C95.5809 12.03 95.2909 11.9 95.0009 11.9C94.2809 11.9 93.9608 12.5 93.9608 13.88C93.9608 15.2 94.2408 15.64 95.0808 15.64C95.3808 15.64 95.7108 15.43 95.8708 15.24V12.3H95.8809Z" fill="#231F20"/>
<path d="M41.0308 28.62C39.9908 28.62 39.1208 28.26 38.4908 27.59C37.7908 26.83 37.4608 25.81 37.4608 24.39C37.4608 22.81 37.8808 21.69 38.7408 20.92C39.3308 20.39 40.0408 20.14 40.8908 20.14C41.7708 20.14 42.5308 20.42 43.1508 20.96L42.7108 21.57C42.0308 21.11 41.5508 20.93 40.9208 20.93C39.9608 20.93 39.2008 21.38 38.8608 22.33C38.6408 22.94 38.5308 23.64 38.5308 24.42C38.5308 25.51 38.7408 26.38 39.1108 26.93C39.4808 27.47 40.3308 27.81 41.1108 27.81C41.6308 27.81 42.0708 27.7 42.4208 27.48V24.96H40.7609L40.5709 24.14H43.3508V27.99C42.7608 28.38 41.8708 28.62 41.0308 28.62Z" fill="#231F20"/>
<path d="M47.5609 28.64C45.9109 28.64 44.9708 27.43 44.9708 25.45C44.9708 23.5 45.9508 22.31 47.5208 22.31C48.5208 22.31 49.1708 22.77 49.5808 23.36C49.9508 23.9 50.1309 24.61 50.1309 25.59C50.1309 27.58 49.0609 28.64 47.5609 28.64ZM48.7808 23.85C48.5308 23.32 48.0009 23.08 47.5109 23.08C46.9809 23.08 46.4908 23.33 46.2808 23.73C46.0908 24.1 45.9908 24.58 45.9908 25.29C45.9908 26.13 46.1308 26.88 46.3608 27.25C46.5808 27.61 47.0508 27.85 47.5808 27.85C48.2108 27.85 48.6709 27.53 48.8809 26.95C49.0109 26.58 49.0609 26.24 49.0609 25.65C49.0609 24.82 48.9808 24.25 48.7808 23.85Z" fill="#231F20"/>
<path d="M53.8708 28.55H52.9409L50.7908 22.55L51.7509 22.34L53.1508 26.47C53.3208 26.96 53.4409 27.5 53.4409 27.5H53.4708C53.4708 27.5 53.5709 27.03 53.7609 26.49L55.1309 22.51H56.1309L53.8708 28.55Z" fill="#231F20"/>
<path d="M57.9808 25.65V25.8C57.9808 26.36 58.0509 26.8 58.2609 27.11C58.6009 27.63 59.1509 27.84 59.7509 27.84C60.3209 27.84 60.8008 27.66 61.2208 27.28L61.5808 27.88C61.0508 28.36 60.3309 28.62 59.5609 28.62C57.9009 28.62 56.9008 27.42 56.9008 25.43C56.9008 24.42 57.1208 23.77 57.6208 23.16C58.1008 22.6 58.6908 22.33 59.4108 22.33C60.0608 22.33 60.6208 22.56 61.0308 22.98C61.5508 23.51 61.7208 24.08 61.7208 25.51V25.64L57.9808 25.65ZM60.4509 23.6C60.2409 23.28 59.8208 23.07 59.3708 23.07C58.5108 23.07 58.0408 23.7 57.9808 24.94H60.7208C60.7108 24.29 60.6309 23.89 60.4509 23.6Z" fill="#231F20"/>
<path d="M65.9509 23.39C65.8909 23.37 65.7808 23.34 65.6808 23.34C65.3208 23.34 64.9608 23.49 64.6808 23.77C64.4108 24.05 64.3308 24.23 64.3308 24.72V28.48H63.3908V23.86C63.3908 22.98 63.1808 22.59 63.1808 22.59L64.1208 22.33C64.1208 22.33 64.3509 22.8 64.3109 23.31C64.7409 22.7 65.3809 22.31 66.0009 22.31C66.1509 22.31 66.3209 22.37 66.3209 22.37L65.9509 23.39Z" fill="#231F20"/>
<path d="M70.6909 28.49V24.43C70.6909 23.79 70.6408 23.64 70.4708 23.43C70.3408 23.28 70.0909 23.18 69.8109 23.18C69.3309 23.18 68.5808 23.56 68.1508 24.02V28.49H67.2408V23.87C67.2408 23.02 67.0109 22.61 67.0109 22.61L67.9308 22.36C67.9308 22.36 68.1508 22.81 68.1508 23.3C68.7808 22.67 69.4008 22.37 70.0408 22.37C70.6908 22.37 71.2709 22.72 71.5109 23.25C71.6109 23.47 71.6508 23.71 71.6508 23.95V28.5L70.6909 28.49Z" fill="#231F20"/>
<path d="M80.0208 28.49V24.06C80.0208 23.48 79.7609 23.18 79.2509 23.18C78.7109 23.18 78.2908 23.53 77.6608 24.11V28.49H76.7108V24.23C76.7108 23.87 76.6708 23.63 76.5408 23.46C76.3908 23.29 76.2008 23.22 75.9308 23.22C75.4708 23.22 75.0308 23.45 74.4008 24.01V28.49H73.5009V23.84C73.5009 22.97 73.2808 22.56 73.2808 22.56L74.1909 22.35C74.1909 22.35 74.4108 22.82 74.4108 23.24C74.8108 22.8 75.5408 22.34 76.1508 22.34C76.7408 22.34 77.3308 22.7 77.5508 23.34C78.1308 22.73 78.8608 22.34 79.4708 22.34C80.3608 22.34 80.9808 23.02 80.9808 23.97V28.5H80.0208V28.49Z" fill="#231F20"/>
<path d="M83.5709 25.65V25.8C83.5709 26.36 83.6408 26.8 83.8508 27.11C84.1808 27.63 84.7408 27.84 85.3408 27.84C85.9208 27.84 86.3909 27.66 86.8109 27.28L87.1708 27.88C86.6408 28.36 85.9208 28.62 85.1508 28.62C83.4908 28.62 82.4908 27.42 82.4908 25.43C82.4908 24.42 82.7108 23.77 83.2108 23.16C83.6908 22.6 84.2809 22.33 85.0009 22.33C85.6509 22.33 86.2109 22.56 86.6309 22.98C87.1509 23.51 87.3209 24.08 87.3209 25.51V25.64L83.5709 25.65ZM86.0408 23.6C85.8308 23.28 85.4108 23.07 84.9608 23.07C84.1008 23.07 83.6209 23.7 83.5709 24.94H86.3209C86.3009 24.29 86.2108 23.89 86.0408 23.6Z" fill="#231F20"/>
<path d="M92.4409 28.49V24.43C92.4409 23.79 92.3908 23.64 92.2208 23.43C92.0908 23.28 91.8409 23.18 91.5609 23.18C91.0809 23.18 90.3308 23.56 89.9008 24.02V28.49H88.9808V23.87C88.9808 23.02 88.7509 22.61 88.7509 22.61L89.6708 22.35C89.6708 22.35 89.8908 22.8 89.8908 23.29C90.5208 22.66 91.1408 22.36 91.7808 22.36C92.4308 22.36 93.0109 22.71 93.2509 23.24C93.3509 23.46 93.3908 23.7 93.3908 23.94V28.49H92.4409Z" fill="#231F20"/>
<path d="M97.4308 23.2H96.1808V27.06C96.1808 27.73 96.3609 27.95 96.9509 27.95C97.2209 27.95 97.3708 27.92 97.5408 27.83L97.6708 28.43C97.3708 28.59 97.0308 28.67 96.6108 28.67C96.3008 28.67 96.0508 28.61 95.8308 28.5C95.4108 28.29 95.2509 27.91 95.2509 27.31V23.19H94.4708V22.48H95.2509C95.2509 21.9 95.3508 20.96 95.3508 20.96L96.3408 20.74C96.3408 20.74 96.2208 21.68 96.2208 22.47H97.7208L97.4308 23.2Z" fill="#231F20"/>
</svg>
