<svg width="157" height="51" viewBox="0 0 157 51" fill="none" xmlns="http://www.w3.org/2000/svg">
<path d="M26.58 16.33H17.2C16.94 16.33 16.61 16.52 16.48 16.75L11.79 24.87C11.66 25.1 11.66 25.47 11.79 25.7L16.48 33.82C16.61 34.05 16.94 34.24 17.2 34.24H26.58C26.84 34.24 27.17 34.05 27.3 33.82L31.99 25.7C32.12 25.47 32.12 25.1 31.99 24.87L27.3 16.75C27.17 16.52 26.85 16.33 26.58 16.33Z" fill="#F89728"/>
<path d="M16.49 14.72C16.62 14.95 16.95 15.14 17.21 15.14H26.59C26.85 15.14 27.18 14.95 27.31 14.72L32 6.6C32.12 6.39 32.13 6.08 32.03 5.85L21.89 0L11.77 5.85C11.68 6.08 11.68 6.39 11.8 6.6L16.49 14.72Z" fill="#F89728"/>
<path d="M33.72 6.83002C33.52 6.90002 33.33 7.04002 33.23 7.20002L28.54 15.32C28.41 15.55 28.41 15.93 28.54 16.15L33.23 24.27C33.36 24.5 33.69 24.69 33.95 24.69H43.33C43.48 24.69 43.65 24.63 43.79 24.53V12.64L33.72 6.83002Z" fill="#F89728"/>
<path d="M33.96 25.89C33.69 25.89 33.37 26.08 33.24 26.31L28.55 34.43C28.42 34.66 28.42 35.03 28.55 35.26L33.24 43.38C33.34 43.54 33.53 43.69 33.73 43.75L43.8 37.94V26.05C43.66 25.96 43.49 25.89 43.34 25.89H33.96Z" fill="#F89728"/>
<path d="M27.31 35.85C27.18 35.62 26.85 35.43 26.59 35.43H17.21C16.95 35.43 16.62 35.62 16.49 35.85L11.8 43.97C11.68 44.18 11.67 44.49 11.77 44.72L21.9 50.57L32.03 44.72C32.13 44.49 32.12 44.18 32 43.97L27.31 35.85Z" fill="#F89728"/>
<path d="M15.25 34.42L10.56 26.3C10.43 26.07 10.1 25.88 9.84 25.88H0.46C0.31 25.88 0.14 25.94 0 26.04V37.93L10.07 43.74C10.27 43.67 10.47 43.53 10.56 43.37L15.25 35.25C15.38 35.03 15.38 34.65 15.25 34.42Z" fill="#F89728"/>
<path d="M9.83 24.69C10.1 24.69 10.42 24.5 10.55 24.27L15.24 16.15C15.37 15.92 15.37 15.55 15.24 15.32L10.56 7.20002C10.46 7.04002 10.27 6.90002 10.07 6.83002L0 12.64V24.52C0.14 24.62 0.31 24.68 0.46 24.68H9.83V24.69Z" fill="#F89728"/>
<path d="M62.44 23.1C61.81 23.38 61.09 23.54 60.36 23.54C57.26 23.54 55.13 21.19 55.13 17.99C55.13 14.77 57.27 12.44 60.36 12.44C63.47 12.44 65.63 14.77 65.63 17.99C65.63 19.51 65.09 20.85 64.21 21.82L65 22.79L63.3 24.15L62.44 23.1ZM60.36 14.91C58.91 14.91 57.96 16.14 57.96 17.99C57.96 19.85 58.9 21.19 60.36 21.19C60.54 21.19 60.71 21.17 60.87 21.14L60.01 20.07L61.71 18.74L62.52 19.74C62.7 19.26 62.8 18.69 62.8 17.99C62.79 16.14 61.81 14.91 60.36 14.91Z" fill="#231F20"/>
<path d="M66.6801 18.97V12.62H69.4801V18.73C69.4801 20.25 70.2001 21.04 71.3701 21.04C72.5201 21.04 73.2401 20.25 73.2401 18.73V12.62H76.0401V18.99C76.0401 21.93 74.2001 23.54 71.3701 23.54C68.5301 23.54 66.6801 21.93 66.6801 18.97Z" fill="#231F20"/>
<path d="M85.21 12.62V15.03H80.29V16.71H84.79V19.07H80.29V20.93H85.21V23.36H77.53V12.62H85.21Z" fill="#231F20"/>
<path d="M94.29 12.62V15.03H89.37V16.71H93.87V19.07H89.37V20.93H94.29V23.36H86.61V12.62H94.29Z" fill="#231F20"/>
<path d="M105.17 23.36H102.9L98.3999 17.08V23.36H95.6899V12.62H98.3199L102.47 18.54V12.62H105.18L105.17 23.36Z" fill="#231F20"/>
<path d="M106.54 20.07C107.46 20.7 108.78 21.19 109.98 21.19C110.87 21.19 111.64 21 111.64 20.33C111.64 19.8 111.31 19.63 110.73 19.42L109.1 18.95C107.3 18.43 106.3 17.53 106.3 15.75C106.3 13.62 108.1 12.44 110.36 12.44C111.81 12.44 112.84 12.76 113.74 13.25V15.84C112.78 15.17 111.71 14.77 110.49 14.77C109.69 14.77 109.07 15 109.07 15.54C109.07 16.03 109.4 16.23 109.96 16.4L111.59 16.89C113.55 17.5 114.44 18.54 114.44 20.18C114.44 22.51 112.46 23.54 110.05 23.54C108.61 23.54 107.32 23.13 106.53 22.66L106.54 20.07Z" fill="#231F20"/>
<path d="M115.6 12.62H118.41V20.93H123.22V23.36H115.59L115.6 12.62Z" fill="#231F20"/>
<path d="M130.86 12.62L134.96 23.36H132.11L131.34 21.28H127.44L126.69 23.36H123.91L128.01 12.62H130.86ZM128.29 18.97H130.5L129.4 15.94L128.29 18.97Z" fill="#231F20"/>
<path d="M145.37 23.36H143.09L138.6 17.08V23.36H135.89V12.62H138.52L142.67 18.54V12.62H145.38V23.36H145.37Z" fill="#231F20"/>
<path d="M146.98 12.62H151.04C154.42 12.62 156.46 14.72 156.46 17.99C156.46 21.26 154.41 23.36 151.04 23.36H146.98V12.62ZM150.9 20.93C152.69 20.93 153.68 19.79 153.68 17.99C153.68 16.17 152.68 15.03 150.9 15.03H149.75V20.93H150.9Z" fill="#231F20"/>
<path d="M61.06 35.63L58.29 31.78V37.94H55.54V27.2H58.15L61.09 31.58L64.05 27.2H66.64V37.95H63.87V31.79L61.12 35.64L61.06 35.63Z" fill="#231F20"/>
<path d="M68.13 33.55V27.2H70.93V33.31C70.93 34.83 71.65 35.62 72.82 35.62C73.97 35.62 74.69 34.83 74.69 33.31V27.2H77.49V33.57C77.49 36.51 75.65 38.12 72.82 38.12C69.98 38.12 68.13 36.51 68.13 33.55Z" fill="#231F20"/>
<path d="M78.7901 34.65C79.7201 35.28 81.0301 35.77 82.2401 35.77C83.1301 35.77 83.9001 35.58 83.9001 34.91C83.9001 34.39 83.5701 34.21 82.9901 34L81.3601 33.53C79.5601 33.01 78.5601 32.11 78.5601 30.33C78.5601 28.2 80.3601 27.02 82.6201 27.02C84.0701 27.02 85.1001 27.33 86.0001 27.82V30.41C85.0401 29.74 83.9701 29.34 82.7401 29.34C81.9301 29.34 81.3201 29.57 81.3201 30.11C81.3201 30.6 81.6501 30.79 82.2101 30.97L83.8401 31.46C85.8001 32.07 86.6901 33.1 86.6901 34.75C86.6901 37.08 84.7101 38.11 82.3001 38.11C80.8601 38.11 79.5701 37.71 78.7801 37.24V34.65H78.7901Z" fill="#231F20"/>
<path d="M95.53 27.2V29.62H90.61V31.3H95.11V33.66H90.61V35.51H95.53V37.94H87.85V27.2H95.53Z" fill="#231F20"/>
<path d="M96.8101 33.55V27.2H99.6101V33.31C99.6101 34.83 100.33 35.62 101.5 35.62C102.65 35.62 103.37 34.83 103.37 33.31V27.2H106.17V33.57C106.17 36.51 104.33 38.12 101.5 38.12C98.6701 38.12 96.8101 36.51 96.8101 33.55Z" fill="#231F20"/>
<path d="M113.17 35.63L110.4 31.78V37.94H107.65V27.2H110.26L113.2 31.58L116.16 27.2H118.75V37.95H115.98V31.79L113.23 35.64L113.17 35.63Z" fill="#231F20"/>
</svg>
